<svg width="37" height="33" viewBox="0 0 37 33" fill="none" xmlns="http://www.w3.org/2000/svg">
<path d="M18.1987 7.54167V7.84167H18.4987H36.1154V32.325H0.882031V0.675H18.1987V7.54167ZM7.7487 29.3417H8.0487V29.0417V25.4583V25.1583H7.7487H4.16536H3.86536V25.4583V29.0417V29.3417H4.16536H7.7487ZM7.7487 22.175H8.0487V21.875V18.2917V17.9917H7.7487H4.16536H3.86536V18.2917V21.875V22.175H4.16536H7.7487ZM7.7487 15.0083H8.0487V14.7083V11.125V10.825H7.7487H4.16536H3.86536V11.125V14.7083V15.0083H4.16536H7.7487ZM7.7487 7.84167H8.0487V7.54167V3.95833V3.65833H7.7487H4.16536H3.86536V3.95833V7.54167V7.84167H4.16536H7.7487ZM14.9154 29.3417H15.2154V29.0417V25.4583V25.1583H14.9154H11.332H11.032V25.4583V29.0417V29.3417H11.332H14.9154ZM14.9154 22.175H15.2154V21.875V18.2917V17.9917H14.9154H11.332H11.032V18.2917V21.875V22.175H11.332H14.9154ZM14.9154 15.0083H15.2154V14.7083V11.125V10.825H14.9154H11.332H11.032V11.125V14.7083V15.0083H11.332H14.9154ZM14.9154 7.84167H15.2154V7.54167V3.95833V3.65833H14.9154H11.332H11.032V3.95833V7.54167V7.84167H11.332H14.9154ZM32.832 29.3417H33.132V29.0417V11.125V10.825H32.832H18.4987H18.1987V11.125V14.7083V15.0083H18.4987H21.782V17.9917H18.4987H18.1987V18.2917V21.875V22.175H18.4987H21.782V25.1583H18.4987H18.1987V25.4583V29.0417V29.3417H18.4987H32.832ZM25.9654 17.9917V15.0083H28.9487V17.9917H25.9654ZM25.9654 25.1583V22.175H28.9487V25.1583H25.9654Z" fill="white" stroke="#48974E" stroke-width="0.6"/>
</svg>
