<svg width="43" height="43" viewBox="0 0 43 43" fill="none" xmlns="http://www.w3.org/2000/svg">
<path d="M21.3102 29.7408L21.4987 29.8931L21.6872 29.7408C24.6399 27.3553 26.9026 25.0232 28.4293 22.79C29.9553 20.5578 30.757 18.4075 30.757 16.3924C30.757 12.9403 29.3393 10.5488 27.4636 9.02644C25.5984 7.51255 23.2906 6.86536 21.4987 6.86536C19.7068 6.86536 17.399 7.51255 15.5338 9.02644C13.6581 10.5488 12.2404 12.9403 12.2404 16.3924C12.2404 18.3986 13.0422 20.5489 14.568 22.7832C16.0946 25.0186 18.3574 27.3552 21.3102 29.7408ZM9.25703 16.3924C9.25703 8.18546 15.7737 3.88203 21.4987 3.88203C27.2237 3.88203 33.7404 8.18546 33.7404 16.3924C33.7404 21.7915 29.7306 27.5637 21.4987 33.6673C13.2668 27.5637 9.25703 21.7915 9.25703 16.3924Z" fill="white" stroke="#48974E" stroke-width="0.6"/>
<path d="M18.2154 16.1263C18.2154 14.3212 19.6936 12.843 21.4987 12.843C22.3695 12.843 23.2046 13.1889 23.8204 13.8046C24.4361 14.4204 24.782 15.2555 24.782 16.1263C24.782 16.9971 24.4361 17.8322 23.8204 18.448C23.2046 19.0637 22.3695 19.4096 21.4987 19.4096C19.6936 19.4096 18.2154 17.9314 18.2154 16.1263ZM33.7404 36.1346V39.118H9.25703V36.1346H33.7404Z" fill="white" stroke="#48974E" stroke-width="0.6"/>
</svg>
